<svg xmlns="http://www.w3.org/2000/svg" viewBox="0 22.09000015258789 424.2200012207031 38.32999801635742" data-asc="1.19970703125" width="424.2200012207031" height="38.32999801635742"><defs/><g><g><g transform="translate(0, 0)"><path d="M34.38 22.49L34.38 34.99L30.27 34.99Q29.86 34.45 29.32 33.89Q28.78 33.33 28.13 32.87Q27.47 32.42 26.68 32.14Q25.90 31.86 25 31.86L25 48.78L28.13 49.39L28.13 59.99L6.25 59.99L6.25 49.39L9.38 48.78L9.38 31.86Q8.47 31.86 7.69 32.14Q6.91 32.42 6.25 32.87Q5.59 33.33 5.05 33.89Q4.52 34.45 4.10 34.99L0 34.99L0 22.49L34.38 22.49ZM69.87 48.22Q69.85 50.63 69.18 52.50Q68.51 54.37 67.31 55.73Q66.11 57.08 64.50 58.02Q62.89 58.96 61.04 59.53Q59.18 60.11 57.14 60.27Q55.10 60.42 53.05 60.42Q49.34 60.42 46.53 60.13Q44.92 59.94 41.72 59.06Q39.11 58.35 37.62 57.57L37.62 47.92L44.97 47.92Q46.24 49.68 47.84 50.51Q49.44 51.34 51.12 51.34Q51.56 51.34 52.10 51.27Q52.64 51.20 53.11 50.85Q53.59 50.51 53.92 49.78Q54.25 49.05 54.25 47.73Q52.15 47.53 50.09 47.17Q48.02 46.80 46.14 46.17Q44.26 45.53 42.64 44.57Q41.02 43.60 39.83 42.24Q38.65 40.87 37.98 39.03Q37.30 37.18 37.30 34.77Q37.30 32.18 37.99 30.21Q38.67 28.25 39.86 26.82Q41.04 25.39 42.64 24.45Q44.24 23.51 46.08 22.95Q47.92 22.39 49.91 22.24Q51.90 22.09 53.88 22.09Q56.76 22.09 59.07 22.30Q61.38 22.51 63.23 22.95Q65.09 23.39 66.52 23.94Q67.94 24.49 69.07 25L69.07 34.52L61.72 34.52Q60.47 32.76 58.95 31.93Q57.42 31.10 55.81 31.10Q55.37 31.10 54.81 31.21Q54.25 31.32 53.76 31.73Q53.27 32.13 52.93 32.90Q52.59 33.67 52.59 34.99Q56.86 35.13 60.11 35.91Q63.35 36.69 65.52 38.27Q67.68 39.84 68.77 42.30Q69.87 44.75 69.87 48.22ZM93.75 60.42Q89.45 60.42 85.71 59.51Q81.96 58.59 79.19 56.36Q76.42 54.13 74.82 50.66Q73.22 47.19 73.22 42.33Q73.22 37.57 74.82 34.22Q76.42 30.86 79.20 28.75Q81.98 26.64 85.72 25.66Q89.45 24.68 93.75 24.68Q98.02 24.68 101.77 25.66Q105.52 26.64 108.31 28.75Q111.11 30.86 112.72 34.22Q114.33 37.57 114.33 42.33Q114.33 45.56 113.60 48.18Q112.87 50.81 111.54 52.84Q110.21 54.88 108.34 56.36Q106.47 57.84 104.17 58.80Q101.88 59.77 99.24 60.10Q96.61 60.42 93.75 60.42M93.75 35.08Q92.31 35.08 91.32 35.45Q90.33 35.82 89.69 36.40Q89.04 36.99 88.67 37.74Q88.31 38.50 88.15 39.29Q87.99 40.09 87.95 40.86Q87.92 41.63 87.92 42.21Q87.92 42.77 87.94 43.54Q87.96 44.31 88.11 45.15Q88.26 46.00 88.60 46.83Q88.94 47.66 89.59 48.32Q90.23 48.97 91.25 49.38Q92.26 49.78 93.75 49.78Q95.21 49.78 96.23 49.39Q97.24 49.00 97.89 48.35Q98.54 47.71 98.90 46.90Q99.27 46.09 99.43 45.28Q99.58 44.46 99.62 43.68Q99.66 42.90 99.66 42.33Q99.66 41.75 99.62 40.98Q99.58 40.21 99.43 39.40Q99.27 38.60 98.90 37.83Q98.54 37.06 97.89 36.45Q97.24 35.84 96.23 35.46Q95.21 35.08 93.75 35.08ZM135.74 50.61Q136.77 50.61 137.70 50.33Q138.62 50.05 139.42 49.60Q140.21 49.15 140.86 48.60Q141.50 48.05 141.99 47.49L146.07 47.49L146.07 59.99L118.14 59.99L118.14 50.24L121.07 49.68L121.07 35.79L118.14 35.23L118.14 25.61L138.70 25.61L138.70 35.23L135.74 35.79L135.74 50.61ZM187.28 35.79Q187.26 36.52 187.26 37.22Q187.26 37.92 187.26 38.55L187.26 42.33Q187.26 47.22 185.91 50.70Q184.57 54.17 182.28 56.40Q179.98 58.62 176.89 59.52Q173.80 60.42 170.34 60.42Q166.33 60.42 162.85 59.52Q159.38 58.62 156.80 56.38Q154.22 54.15 152.75 50.68Q151.27 47.22 151.27 42.33L151.27 35.79L148.34 35.23L148.34 25.61L167.41 25.61L167.41 35.23L164.48 35.79L164.48 38.70Q164.48 39.28 164.48 39.88Q164.48 40.48 164.49 40.99Q164.50 41.50 164.50 41.88Q164.50 42.26 164.50 42.38Q164.50 42.94 164.53 43.69Q164.55 44.43 164.72 45.23Q164.89 46.02 165.25 46.79Q165.60 47.56 166.25 48.17Q166.89 48.78 167.88 49.16Q168.87 49.54 170.34 49.54Q171.80 49.54 172.81 49.16Q173.83 48.78 174.48 48.16Q175.12 47.53 175.49 46.75Q175.85 45.97 176.01 45.18Q176.17 44.38 176.21 43.64Q176.25 42.90 176.25 42.33Q176.25 42.16 176.25 41.78Q176.25 41.41 176.23 40.91Q176.22 40.41 176.22 39.83Q176.22 39.26 176.22 38.70L176.22 35.79L173.29 35.23L173.29 25.61L190.23 25.61L190.23 35.23L187.28 35.79ZM201.95 34.69Q200.68 34.69 199.71 35.03Q198.73 35.38 198.07 35.89Q197.41 36.40 197.07 37.00Q196.73 37.60 196.73 38.11L192.65 38.11L192.65 25.61L225.95 25.61L225.95 38.11L221.88 38.11Q221.88 37.60 221.53 37.00Q221.19 36.40 220.53 35.89Q219.87 35.38 218.90 35.03Q217.92 34.69 216.65 34.69L216.65 49.68L219.58 50.24L219.58 59.99L199.02 59.99L199.02 50.24L201.95 49.68L201.95 34.69ZM229.30 25.61L249.85 25.61L249.85 35.23L246.92 35.79L246.92 49.68L249.85 50.24L249.85 59.99L229.30 59.99L229.30 50.24L232.23 49.68L232.23 35.79L229.30 35.23L229.30 25.61ZM274.22 60.42Q269.92 60.42 266.17 59.51Q262.43 58.59 259.66 56.36Q256.88 54.13 255.29 50.66Q253.69 47.19 253.69 42.33Q253.69 37.57 255.29 34.22Q256.88 30.86 259.67 28.75Q262.45 26.64 266.19 25.66Q269.92 24.68 274.22 24.68Q278.49 24.68 282.24 25.66Q285.99 26.64 288.78 28.75Q291.58 30.86 293.19 34.22Q294.80 37.57 294.80 42.33Q294.80 45.56 294.07 48.18Q293.33 50.81 292.00 52.84Q290.67 54.88 288.81 56.36Q286.94 57.84 284.64 58.80Q282.35 59.77 279.71 60.10Q277.08 60.42 274.22 60.42M274.22 35.08Q272.78 35.08 271.79 35.45Q270.80 35.82 270.15 36.40Q269.51 36.99 269.14 37.74Q268.77 38.50 268.62 39.29Q268.46 40.09 268.42 40.86Q268.38 41.63 268.38 42.21Q268.38 42.77 268.41 43.54Q268.43 44.31 268.58 45.15Q268.73 46.00 269.07 46.83Q269.41 47.66 270.06 48.32Q270.70 48.97 271.72 49.38Q272.73 49.78 274.22 49.78Q275.68 49.78 276.70 49.39Q277.71 49.00 278.36 48.35Q279.00 47.71 279.37 46.90Q279.74 46.09 279.90 45.28Q280.05 44.46 280.09 43.68Q280.13 42.90 280.13 42.33Q280.13 41.75 280.09 40.98Q280.05 40.21 279.90 39.40Q279.74 38.60 279.37 37.83Q279.00 37.06 278.36 36.45Q277.71 35.84 276.70 35.46Q275.68 35.08 274.22 35.08ZM310.35 41.94L310.35 49.68L313.31 50.22L313.31 59.99L298.61 59.99L298.61 50.24L301.54 49.68L301.54 35.79L298.61 35.23L298.61 25.61L316.24 25.61L327.98 44.14L327.98 35.84L325.05 35.23L325.05 25.61L339.72 25.61L339.72 35.23L336.79 35.79L336.79 49.68L339.72 50.24L339.72 59.99L322.09 59.99L310.35 41.94ZM374.37 49.17Q374.37 51.44 373.72 53.19Q373.07 54.93 371.96 56.21Q370.85 57.50 369.32 58.35Q367.80 59.20 366.04 59.73Q364.28 60.25 362.37 60.34Q360.45 60.42 358.54 60.42Q355.91 60.42 353.78 60.30Q351.66 60.18 349.99 59.77Q348.32 59.35 347.03 58.85Q345.75 58.35 344.78 57.86L344.78 49.39L351.68 49.39Q352.71 51.00 354.03 51.76Q355.35 52.51 356.74 52.51Q357.15 52.51 357.67 52.44Q358.18 52.37 358.62 51.98Q359.06 51.59 359.36 50.77Q359.67 49.95 359.67 48.46Q357.69 48.29 355.75 47.96Q353.81 47.63 352.04 47.07Q350.27 46.51 348.75 45.64Q347.24 44.78 346.13 43.54Q345.02 42.31 344.38 40.64Q343.75 38.96 343.75 36.79Q343.75 34.30 344.38 32.43Q345.02 30.57 346.12 29.22Q347.22 27.88 348.72 27.00Q350.22 26.12 351.95 25.61Q353.69 25.10 355.57 24.89Q357.45 24.68 359.33 24.68Q361.99 24.68 364.10 24.95Q366.21 25.22 367.88 25.63Q369.56 26.05 370.84 26.55Q372.12 27.05 373.12 27.51L373.12 36.06L365.72 36.06Q364.79 34.30 363.60 33.50Q362.40 32.69 361.16 32.69Q360.74 32.69 360.21 32.82Q359.67 32.96 359.20 33.42Q358.74 33.89 358.42 34.79Q358.11 35.69 358.11 37.23Q362.13 37.38 365.17 38.09Q368.21 38.79 370.26 40.20Q372.31 41.60 373.34 43.81Q374.37 46.02 374.37 49.17ZM420.51 48.80L424.22 49.39L424.22 59.99L399.46 59.99L399.46 49.39L402.15 48.80L396.46 44.46L391.75 48.80L396.39 49.39L396.39 59.99L377.51 59.99L377.51 49.39L381.20 48.80L390.21 40.75L381.45 33.67L377.00 33.08L377.00 22.49L400.88 22.49L400.88 33.08L398.19 33.67L404.52 38.26L408.74 33.67L404.17 33.08L404.17 22.49L422.97 22.49L422.97 33.08L418.55 33.67L411.25 41.24L420.51 48.80Z"/></g></g></g></svg>